<?xml version="1.0" standalone="no"?>
<!DOCTYPE svg PUBLIC "-//W3C//DTD SVG 20010904//EN"
 "http://www.w3.org/TR/2001/REC-SVG-20010904/DTD/svg10.dtd">
<svg version="1.0" xmlns="http://www.w3.org/2000/svg"
 width="512.000000pt" height="512.000000pt" viewBox="0 0 512.000000 512.000000"
 preserveAspectRatio="xMidYMid meet">

<g transform="translate(0.000000,512.000000) scale(0.100000,-0.100000)"
fill="#000000" stroke="none">
<path d="M1470 4970 c-25 -5 -84 -29 -132 -53 l-86 -44 -61 23 c-95 36 -201
54 -313 54 -175 0 -309 -41 -453 -135 -203 -134 -329 -343 -397 -659 -29 -136
-32 -425 -5 -561 17 -83 127 -437 148 -477 5 -10 24 -25 41 -34 26 -13 38 -14
69 -5 47 14 69 44 69 93 0 20 -24 113 -54 205 -72 220 -89 314 -89 483 1 218
47 412 136 565 51 89 172 210 254 253 81 42 198 72 287 72 65 0 202 -22 214
-35 3 -3 -6 -26 -20 -52 -14 -27 -31 -64 -37 -84 -10 -31 -17 -37 -49 -43 -20
-3 -47 -6 -59 -6 -12 0 -47 -9 -78 -21 -79 -29 -156 -104 -200 -192 -54 -110
-68 -194 -62 -377 6 -166 16 -222 97 -510 74 -264 84 -326 83 -510 0 -145 -3
-177 -26 -264 -33 -125 -102 -266 -161 -331 l-45 -50 -1 34 c0 52 -42 91 -94
91 -63 -1 -84 -23 -112 -125 -14 -48 -36 -110 -50 -136 -33 -67 -32 -113 5
-150 36 -36 72 -37 159 -8 199 67 379 272 465 532 48 142 61 237 61 422 -1
199 -13 277 -86 535 -88 313 -91 330 -92 495 -1 173 11 225 71 295 39 46 85
70 131 70 25 0 31 -7 50 -53 27 -64 97 -137 155 -163 23 -10 43 -19 45 -19 1
-1 -9 -44 -23 -96 -77 -295 -79 -401 -21 -1434 27 -472 51 -832 58 -848 12
-30 54 -57 88 -57 35 0 76 27 88 57 6 15 13 60 17 98 9 101 35 317 41 338 4
14 25 -1 102 -73 53 -51 145 -131 204 -178 86 -69 108 -91 104 -107 -3 -11 -8
-54 -12 -96 -4 -43 -9 -81 -13 -86 -8 -12 -780 -253 -809 -253 -41 0 -176 -31
-227 -53 -73 -30 -173 -97 -229 -153 -58 -58 -127 -161 -155 -232 -19 -49
-161 -653 -161 -686 0 -29 24 -68 51 -82 42 -21 4376 -21 4418 0 27 14 51 53
51 82 0 33 -142 639 -161 686 -50 128 -159 256 -283 333 -86 53 -168 81 -289
100 -54 8 -202 49 -362 101 -434 139 -449 144 -467 144 -10 0 -18 1 -19 3 -2
8 -27 212 -26 212 1 1 46 35 99 78 96 76 243 209 284 256 l21 25 6 -35 c9 -46
34 -257 43 -347 8 -90 29 -121 90 -129 33 -4 45 -1 72 22 19 16 33 39 37 58 2
18 26 403 51 857 50 897 51 1016 14 1235 -11 66 -30 150 -41 188 -11 38 -19
70 -17 71 2 1 20 9 41 19 61 27 133 102 158 163 20 48 26 54 53 54 45 0 111
-36 139 -78 14 -20 35 -68 47 -105 18 -54 29 -73 54 -88 42 -26 79 -24 114 6
42 35 47 68 21 150 -63 207 -165 299 -351 320 -55 6 -57 8 -69 43 -6 20 -23
59 -36 85 -13 27 -23 51 -21 53 11 10 131 35 197 40 93 7 197 -13 290 -56 96
-45 212 -166 273 -285 99 -194 132 -335 132 -560 -1 -189 -19 -276 -107 -520
-75 -209 -164 -492 -204 -650 -24 -95 -27 -131 -28 -259 l0 -148 -43 48 c-53
61 -125 205 -151 304 -45 165 -50 341 -15 535 20 115 18 132 -15 166 -23 22
-39 29 -70 29 -88 0 -116 -72 -127 -335 -18 -387 89 -726 286 -909 73 -67 127
-100 218 -132 93 -33 136 -32 173 5 37 38 38 83 3 152 -42 85 -65 191 -65 315
-1 189 27 304 176 714 57 157 118 344 136 415 31 121 34 141 33 290 0 278 -62
510 -190 707 -115 179 -304 311 -502 353 -145 31 -363 13 -494 -40 l-57 -23
-88 44 c-101 51 -181 69 -271 60 -118 -10 -215 -72 -267 -168 -15 -29 -29 -55
-31 -57 -2 -2 -47 8 -101 22 -335 88 -835 84 -1137 -8 -27 -8 -54 -15 -60 -15
-6 0 -24 25 -40 55 -55 105 -153 164 -284 171 -42 1 -97 -1 -122 -6z m151
-200 c39 -11 73 -42 87 -81 10 -24 6 -28 -65 -75 -88 -58 -224 -195 -273 -276
-37 -61 -47 -64 -97 -31 -111 73 -32 322 134 420 82 48 149 61 214 43z m2054
-24 c180 -82 286 -324 185 -424 -52 -52 -62 -49 -124 43 -65 95 -163 192 -259
256 -40 25 -67 50 -67 60 0 27 48 78 83 89 47 14 121 4 182 -24z m-820 -127
c443 -52 714 -253 829 -614 70 -223 85 -411 62 -815 -9 -168 -19 -340 -23
-383 l-6 -79 -43 149 c-64 224 -140 426 -212 568 -14 28 -40 91 -57 141 -54
155 -125 266 -179 280 -37 9 -60 1 -153 -53 -73 -42 -114 -73 -236 -173 l-30
-25 7 65 c4 36 21 128 37 204 16 77 29 147 29 157 0 29 -48 78 -84 85 -39 7
-79 -11 -206 -94 -107 -69 -214 -156 -309 -250 -40 -40 -75 -72 -77 -70 -2 3
1 57 7 121 8 99 8 121 -6 146 -19 38 -43 51 -92 51 -35 0 -46 -8 -128 -93
-218 -223 -407 -590 -538 -1047 -39 -134 -46 -150 -50 -120 -14 87 -39 685
-34 800 34 689 338 1006 1017 1060 119 10 342 4 475 -11z m-229 -826 c-14 -49
-28 -237 -22 -308 12 -156 49 -225 122 -225 51 0 60 7 128 95 72 91 168 183
252 241 66 46 69 44 104 -69 13 -40 40 -106 60 -147 92 -185 180 -439 251
-719 51 -203 51 -223 -5 -297 -142 -192 -472 -447 -689 -534 -156 -62 -267
-73 -405 -40 -197 47 -461 212 -675 423 -205 201 -209 216 -143 478 72 283
143 483 245 689 66 132 139 252 150 245 5 -2 11 -31 14 -64 9 -79 42 -165 72
-185 25 -16 71 -21 100 -10 9 4 44 43 77 87 80 104 174 204 273 289 83 71 100
80 91 51z m-356 -2167 c223 -80 401 -75 635 19 60 25 112 41 116 37 3 -4 11
-54 18 -112 9 -87 9 -107 -2 -115 -8 -5 -116 -89 -241 -185 -124 -96 -230
-175 -235 -175 -5 0 -118 85 -251 189 -236 184 -242 190 -236 220 3 17 8 58
11 91 3 33 8 70 11 83 l4 22 48 -24 c26 -13 81 -36 122 -50z m-159 -442 c138
-108 249 -197 247 -199 -14 -14 -474 -203 -479 -197 -4 4 -37 122 -74 262 -36
140 -68 262 -71 272 -4 12 8 21 48 37 29 11 59 20 66 20 7 1 125 -87 263 -195z
m1242 171 c28 -11 37 -20 33 -33 -3 -9 -35 -132 -71 -272 -37 -140 -70 -258
-74 -262 -4 -4 -114 38 -244 94 -131 56 -234 105 -230 109 5 4 118 93 253 198
264 206 253 200 333 166z m-1728 -417 c99 -380 108 -398 178 -398 22 0 164 55
396 154 l362 154 361 -154 c233 -100 372 -154 395 -154 70 0 79 18 177 395 49
187 90 342 92 343 5 6 219 -61 230 -72 6 -6 27 -183 48 -416 20 -223 39 -415
42 -427 l4 -23 -1350 0 -1349 0 4 28 c3 15 21 205 40 422 20 217 39 401 43
409 7 11 193 77 227 80 6 1 51 -153 100 -341z m-545 190 c0 -18 -16 -195 -35
-393 -19 -198 -35 -368 -35 -377 0 -17 -18 -18 -240 -18 -132 0 -240 4 -240 8
0 5 24 115 54 244 63 271 88 332 175 419 78 77 202 136 314 148 4 1 7 -14 7
-31z m3065 10 c71 -18 158 -69 216 -127 87 -87 112 -148 175 -419 30 -129 54
-239 54 -244 0 -4 -108 -8 -240 -8 -202 0 -240 2 -240 14 0 8 -16 178 -35 378
-19 200 -35 378 -35 395 0 31 1 32 33 27 17 -3 50 -11 72 -16z"/>
<path d="M2011 3166 c-57 -32 -68 -111 -22 -157 56 -56 153 -29 167 47 16 87
-69 152 -145 110z"/>
<path d="M3011 3166 c-57 -32 -68 -111 -22 -157 56 -56 153 -29 167 47 16 87
-69 152 -145 110z"/>
<path d="M2426 3098 c-13 -13 -64 -99 -113 -193 -81 -157 -88 -174 -87 -227 1
-108 72 -206 177 -245 18 -6 75 -12 127 -12 108 -1 133 9 156 65 12 29 12 39
0 68 -22 53 -49 66 -136 66 -82 0 -120 16 -120 51 0 11 36 89 80 173 91 173
96 201 51 247 -38 37 -97 40 -135 7z"/>
<path d="M2311 2206 c-65 -36 -65 -140 1 -174 89 -46 322 -51 471 -11 64 17
94 87 62 148 -24 48 -58 55 -179 35 -100 -16 -112 -16 -208 -1 -121 20 -116
20 -147 3z"/>
<path d="M4364 3791 c-65 -28 -84 -113 -35 -162 60 -60 156 -27 168 57 4 35 1
46 -23 73 -31 33 -76 46 -110 32z"/>
<path d="M352 2835 c-65 -28 -76 -130 -19 -170 36 -25 100 -19 131 11 49 50
29 141 -36 163 -38 13 -35 13 -76 -4z"/>
</g>
</svg>
